<?xml version="1.0" standalone="no"?>
<!DOCTYPE svg PUBLIC "-//W3C//DTD SVG 20010904//EN"
 "http://www.w3.org/TR/2001/REC-SVG-20010904/DTD/svg10.dtd">
<svg version="1.0" xmlns="http://www.w3.org/2000/svg"
 width="110.000000pt" height="110.000000pt" viewBox="0 0 110.000000 110.000000"
 preserveAspectRatio="xMidYMid meet">
<metadata>
Created by potrace 1.11, written by Peter Selinger 2001-2013
</metadata>
<g transform="translate(0.000000,110.000000) scale(0.100000,-0.100000)"
fill="#000000" stroke="none">
<path d="M738 983 c-10 -2 -18 -9 -18 -14 0 -5 -6 -9 -14 -9 -8 0 -17 -7 -20
-16 -3 -8 -10 -12 -16 -9 -5 3 -10 2 -10 -4 0 -5 -9 -13 -21 -16 -13 -4 -18
-12 -15 -21 3 -9 1 -12 -5 -9 -12 8 -41 -14 -33 -26 3 -5 -3 -6 -13 -2 -16 6
-17 5 -3 -12 8 -10 10 -16 3 -12 -17 10 -45 -3 -39 -19 3 -8 0 -11 -8 -8 -14
6 -30 -22 -21 -37 4 -5 -1 -6 -9 -3 -17 6 -38 -33 -28 -50 3 -5 0 -6 -6 -2 -6
4 -18 -6 -27 -24 -11 -22 -20 -29 -28 -22 -21 17 -142 39 -195 36 -120 -7
-203 -95 -195 -207 6 -89 86 -203 176 -248 34 -18 231 -89 245 -89 2 0 0 6 -3
13 -4 6 0 4 9 -7 8 -10 22 -16 30 -13 8 3 17 1 20 -6 3 -9 7 -8 14 2 6 8 23
15 39 16 15 2 28 4 28 5 0 2 12 3 27 4 15 1 24 -2 21 -7 -3 -4 -12 -6 -20 -3
-9 4 -22 1 -29 -5 -8 -6 -14 -8 -14 -3 0 5 -5 2 -10 -6 -7 -11 -10 -11 -10 -2
0 7 -4 10 -10 7 -20 -12 -10 -27 15 -23 13 3 26 0 29 -6 2 -6 5 -3 5 7 1 9 5
17 11 17 5 0 7 -7 3 -17 -5 -14 -1 -15 26 -10 18 4 30 3 27 -1 -2 -4 9 -8 25
-9 17 -1 27 2 24 8 -4 5 -12 6 -18 2 -7 -4 -6 0 2 10 15 19 1 23 -17 5 -7 -7
-12 -8 -12 -2 0 5 9 15 20 22 18 11 21 9 20 -13 -1 -3 6 -13 15 -21 21 -21 43
-11 43 20 0 14 -4 23 -8 21 -4 -3 -11 2 -14 11 -4 10 -2 13 6 8 8 -5 9 -2 4
12 -9 22 -11 28 -21 72 -4 17 -12 32 -17 32 -5 0 -7 4 -4 9 8 12 -4 42 -13 37
-4 -3 -7 8 -6 23 0 21 5 27 19 26 11 -1 22 -8 24 -16 3 -11 1 -11 -7 1 -9 13
-11 13 -11 -3 0 -10 7 -20 16 -24 12 -4 13 -8 3 -14 -13 -8 -11 -17 22 -81 5
-10 9 -25 9 -33 0 -9 5 -13 10 -10 6 3 10 -4 10 -16 0 -20 4 -19 48 16 99 80
189 181 227 258 31 63 37 86 37 140 0 69 -24 139 -58 168 -62 54 -137 75 -184
52 -28 -14 -41 -6 -45 31 -3 24 -35 127 -38 125 -1 -1 -10 -3 -19 -6z m23
-117 c-12 -14 -35 -16 -47 -3 -4 3 3 5 14 2 12 -2 24 0 27 6 4 5 9 9 12 9 3 0
0 -6 -6 -14z m9 -36 c-12 -22 -21 -26 -17 -7 2 10 17 26 25 27 1 0 -2 -9 -8
-20z m-82 -4 c19 3 23 2 13 -5 -18 -12 -44 -7 -47 8 -1 6 0 7 2 2 3 -5 17 -7
32 -5z m179 -5 c0 -10 -6 -17 -13 -14 -7 2 -19 -6 -28 -19 -9 -12 -16 -17 -16
-11 0 7 7 18 15 25 9 7 21 18 28 25 16 16 16 16 14 -6z m-86 -14 c-10 -9 -11
-8 -5 6 3 10 9 15 12 12 3 -3 0 -11 -7 -18z m146 17 c-3 -3 -12 -4 -19 -1 -8
3 -5 6 6 6 11 1 17 -2 13 -5z m-205 -33 c-5 -14 -4 -14 11 -2 15 12 17 12 11
-3 -3 -9 -10 -16 -16 -16 -5 0 -7 -4 -4 -8 3 -5 -2 -9 -10 -9 -10 0 -11 4 -5
10 6 6 7 17 1 27 -6 12 -5 17 5 17 8 0 11 -7 7 -16z m-97 -10 c-9 -8 -36 -10
-30 -2 2 4 11 8 20 8 8 0 13 -3 10 -6z m21 -17 c-3 -15 -8 -29 -11 -32 -3 -3
-3 5 -1 19 2 13 5 27 5 32 1 4 3 7 6 7 3 0 3 -12 1 -26z m44 -25 c0 -3 -9 -9
-19 -12 -13 -3 -18 0 -15 7 5 13 34 18 34 5z m-87 -22 c-4 -6 0 -8 8 -5 10 4
15 -1 15 -12 0 -11 -5 -16 -15 -12 -10 4 -12 1 -6 -8 5 -9 4 -11 -4 -6 -6 4
-9 12 -5 17 3 5 1 16 -5 23 -8 9 -7 13 4 13 8 0 11 -5 8 -10z m-113 -17 c0 -5
-5 -10 -11 -10 -5 0 -7 5 -4 10 3 6 8 10 11 10 2 0 4 -4 4 -10z m198 -34 c-2
-1 -10 -7 -18 -13 -13 -10 -16 -8 -16 6 0 13 6 17 19 13 10 -2 16 -5 15 -6z
m-188 -26 c8 -5 11 -10 5 -10 -5 0 -17 5 -25 10 -8 5 -10 10 -5 10 6 0 17 -5
25 -10z m151 -17 c13 -16 12 -17 -3 -4 -17 13 -22 21 -14 21 2 0 10 -8 17 -17z
m-25 -42 c-6 -10 -43 -7 -55 4 -3 4 7 4 22 1 16 -3 27 0 27 6 0 6 3 9 6 5 3
-3 3 -10 0 -16z m49 1 c-3 -3 -11 0 -18 7 -9 10 -8 11 6 5 10 -3 15 -9 12 -12z
m-85 -37 c14 -19 14 -19 -2 -6 -10 7 -18 18 -18 24 0 6 1 8 3 6 1 -2 9 -13 17
-24z m73 -10 c-7 -21 -12 -19 -10 4 0 11 5 18 9 15 4 -3 5 -11 1 -19z m-6 -47
c-3 -8 -6 -5 -6 6 -1 11 2 17 5 13 3 -3 4 -12 1 -19z m28 -58 c3 -6 -1 -7 -9
-4 -18 7 -21 14 -7 14 6 0 13 -4 16 -10z m55 -110 c0 -5 -5 -10 -11 -10 -5 0
-7 5 -4 10 3 6 8 10 11 10 2 0 4 -4 4 -10z m-15 -171 c22 -41 11 -36 -14 7
-12 19 -16 32 -11 29 6 -3 17 -19 25 -36z m-82 7 c-15 -13 -30 -23 -32 -20 -5
4 41 43 52 44 4 0 -5 -11 -20 -24z"/>
</g>
</svg>
