<svg version="1" xmlns="http://www.w3.org/2000/svg" width="146.667" height="146.667" viewBox="0 0 110.000000 110.000000"><path d="M73.8 11.7c-1 .2-1.8.9-1.8 1.4 0 .5-.6.9-1.4.9-.8 0-1.7.7-2 1.6-.3.8-1 1.2-1.6.9-.5-.3-1-.2-1 .4 0 .5-.9 1.3-2.1 1.6-1.3.4-1.8 1.2-1.5 2.1.3.9.1 1.2-.5.9-1.2-.8-4.1 1.4-3.3 2.6.3.5-.3.6-1.3.2-1.6-.6-1.7-.5-.3 1.2.8 1 1 1.6.3 1.2-1.7-1-4.5.3-3.9 1.9.3.8 0 1.1-.8.8-1.4-.6-3 2.2-2.1 3.7.4.5-.1.6-.9.3-1.7-.6-3.8 3.3-2.8 5 .3.5 0 .6-.6.2-.6-.4-1.8.6-2.7 2.4-1.1 2.2-2 2.9-2.8 2.2-2.1-1.7-14.2-3.9-19.5-3.6-12 .7-20.3 9.5-19.5 20.7.6 8.9 8.6 20.3 17.6 24.8 3.4 1.8 23.1 8.9 24.5 8.9.2 0 0-.6-.3-1.3-.4-.6 0-.4.9.7.8 1 2.2 1.6 3 1.3.8-.3 1.7-.1 2 .6.3.9.7.8 1.4-.2.6-.8 2.3-1.5 3.9-1.6 1.5-.2 2.8-.4 2.8-.5 0-.2 1.2-.3 2.7-.4 1.5-.1 2.4.2 2.1.7-.3.4-1.2.6-2 .3-.9-.4-2.2-.1-2.9.5-.8.6-1.4.8-1.4.3s-.5-.2-1 .6c-.7 1.1-1 1.1-1 .2 0-.7-.4-1-1-.7-2 1.2-1 2.7 1.5 2.3 1.3-.3 2.6 0 2.9.6.2.6.5.3.5-.7.1-.9.5-1.7 1.1-1.7.5 0 .7.7.3 1.7-.5 1.4-.1 1.5 2.6 1 1.8-.4 3-.3 2.7.1-.2.4.9.8 2.5.9 1.7.1 2.7-.2 2.4-.8-.4-.5-1.2-.6-1.8-.2-.7.4-.6 0 .2-1 1.5-1.9.1-2.3-1.7-.5-.7.7-1.2.8-1.2.2 0-.5.9-1.5 2-2.2 1.8-1.1 2.1-.9 2 1.3-.1.3.6 1.3 1.5 2.1 2.1 2.1 4.3 1.1 4.3-2 0-1.4-.4-2.3-.8-2.1-.4.3-1.1-.2-1.4-1.1-.4-1-.2-1.3.6-.8s.9.2.4-1.2c-.9-2.2-1.1-2.8-2.1-7.2-.4-1.7-1.2-3.2-1.7-3.2s-.7-.4-.4-.9c.8-1.2-.4-4.2-1.3-3.7-.4.3-.7-.8-.6-2.3 0-2.1.5-2.7 1.9-2.6 1.1.1 2.2.8 2.4 1.6.3 1.1.1 1.1-.7-.1-.9-1.3-1.1-1.3-1.1.3 0 1 .7 2 1.6 2.4 1.2.4 1.3.8.3 1.4-1.3.8-1.1 1.7 2.2 8.1.5 1 .9 2.5.9 3.3 0 .9.5 1.3 1 1 .6-.3 1 .4 1 1.6 0 2 .4 1.9 4.8-1.6 9.9-8 18.9-18.1 22.7-25.8 3.1-6.3 3.7-8.6 3.7-14 0-6.9-2.4-13.9-5.8-16.8-6.2-5.4-13.7-7.5-18.4-5.2-2.8 1.4-4.1.6-4.5-3.1-.3-2.4-3.5-12.7-3.8-12.5-.1.1-1 .3-1.9.6zm2.3 11.7c-1.2 1.4-3.5 1.6-4.7.3-.4-.3.3-.5 1.4-.2 1.2.2 2.4 0 2.7-.6.4-.5.9-.9 1.2-.9.3 0 0 .6-.6 1.4zM77 27c-1.2 2.2-2.1 2.6-1.7.7.2-1 1.7-2.6 2.5-2.7.1 0-.2.9-.8 2zm-8.2.4c1.9-.3 2.3-.2 1.3.5-1.8 1.2-4.4.7-4.7-.8-.1-.6 0-.7.2-.2.3.5 1.7.7 3.2.5zm17.9.5c0 1-.6 1.7-1.3 1.4-.7-.2-1.9.6-2.8 1.9-.9 1.2-1.6 1.7-1.6 1.1 0-.7.7-1.8 1.5-2.5.9-.7 2.1-1.8 2.8-2.5 1.6-1.6 1.6-1.6 1.4.6zm-8.6 1.4c-1 .9-1.1.8-.5-.6.3-1 .9-1.5 1.2-1.2.3.3 0 1.1-.7 1.8zm14.6-1.7c-.3.3-1.2.4-1.9.1-.8-.3-.5-.6.6-.6 1.1-.1 1.7.2 1.3.5zm-20.5 3.3c-.5 1.4-.4 1.4 1.1.2s1.7-1.2 1.1.3c-.3.9-1 1.6-1.6 1.6-.5 0-.7.4-.4.8.3.5-.2.9-1 .9-1 0-1.1-.4-.5-1 .6-.6.7-1.7.1-2.7-.6-1.2-.5-1.7.5-1.7.8 0 1.1.7.7 1.6zm-9.7 1c-.9.8-3.6 1-3 .2.2-.4 1.1-.8 2-.8.8 0 1.3.3 1 .6zm2.1 1.7c-.3 1.5-.8 2.9-1.1 3.2-.3.3-.3-.5-.1-1.9.2-1.3.5-2.7.5-3.2.1-.4.3-.7.6-.7s.3 1.2.1 2.6zm4.4 2.5c0 .3-.9.9-1.9 1.2-1.3.3-1.8 0-1.5-.7.5-1.3 3.4-1.8 3.4-.5zm-8.7 2.2c-.4.6 0 .8.8.5 1-.4 1.5.1 1.5 1.2 0 1.1-.5 1.6-1.5 1.2-1-.4-1.2-.1-.6.8.5.9.4 1.1-.4.6-.6-.4-.9-1.2-.5-1.7.3-.5.1-1.6-.5-2.3-.8-.9-.7-1.3.4-1.3.8 0 1.1.5.8 1zM49 40c0 .5-.5 1-1.1 1-.5 0-.7-.5-.4-1 .3-.6.8-1 1.1-1 .2 0 .4.4.4 1zm19.8 3.4c-.2.1-1 .7-1.8 1.3-1.3 1-1.6.8-1.6-.6 0-1.3.6-1.7 1.9-1.3 1 .2 1.6.5 1.5.6zM50 46c.8.5 1.1 1 .5 1-.5 0-1.7-.5-2.5-1s-1-1-.5-1c.6 0 1.7.5 2.5 1zm15.1 1.7c1.3 1.6 1.2 1.7-.3.4-1.7-1.3-2.2-2.1-1.4-2.1.2 0 1 .8 1.7 1.7zm-2.5 4.2c-.6 1-4.3.7-5.5-.4-.3-.4.7-.4 2.2-.1 1.6.3 2.7 0 2.7-.6s.3-.9.6-.5c.3.3.3 1 0 1.6zm4.9-.1c-.3.3-1.1 0-1.8-.7-.9-1-.8-1.1.6-.5 1 .3 1.5.9 1.2 1.2zM59 55.5c1.4 1.9 1.4 1.9-.2.6-1-.7-1.8-1.8-1.8-2.4 0-.6.1-.8.3-.6.1.2.9 1.3 1.7 2.4zm7.3 1c-.7 2.1-1.2 1.9-1-.4 0-1.1.5-1.8.9-1.5.4.3.5 1.1.1 1.9zm-.6 4.7c-.3.8-.6.5-.6-.6-.1-1.1.2-1.7.5-1.3.3.3.4 1.2.1 1.9zm2.8 5.8c.3.6-.1.7-.9.4-1.8-.7-2.1-1.4-.7-1.4.6 0 1.3.4 1.6 1zM74 78c0 .5-.5 1-1.1 1-.5 0-.7-.5-.4-1 .3-.6.8-1 1.1-1 .2 0 .4.4.4 1zm-1.5 17.1c2.2 4.1 1.1 3.6-1.4-.7-1.2-1.9-1.6-3.2-1.1-2.9.6.3 1.7 1.9 2.5 3.6zm-8.2-.7c-1.5 1.3-3 2.3-3.2 2-.5-.4 4.1-4.3 5.2-4.4.4 0-.5 1.1-2 2.4z"/></svg>